0
SECTION
2
HEADER
9
$INSUNITS
70
4
9
$ACADVER
1
AC1014
9
$HANDSEED
5
FFFF
0
ENDSEC
0
SECTION
2
TABLES
0
TABLE
2
VPORT
5
8
100
AcDbSymbolTable
0
ENDTAB
0
TABLE
2
LTYPE
5
5
100
AcDbSymbolTable
0
LTYPE
5
14
100
AcDbSymbolTableRecord
100
AcDbLinetypeTableRecord
2
BYBLOCK
70
0
0
LTYPE
5
15
100
AcDbSymbolTableRecord
100
AcDbLinetypeTableRecord
2
BYLAYER
70
0
0
ENDTAB
0
TABLE
2
LAYER
5
2
100
AcDbSymbolTable
70
2
0
LAYER
5
50
100
AcDbSymbolTableRecord
100
AcDbLayerTableRecord
2
0
70
0
6
CONTINUOUS
0
ENDTAB
0
TABLE
2
STYLE
5
3
100
AcDbSymbolTable
70
1
0
STYLE
5
11
100
AcDbSymbolTableRecord
100
AcDbTextStyleTableRecord
2
STANDARD
70
0
0
ENDTAB
0
TABLE
2
VIEW
5
6
100
AcDbSymbolTable
70
0
0
ENDTAB
0
TABLE
2
UCS
5
7
100
AcDbSymbolTable
70
0
0
ENDTAB
0
TABLE
2
APPID
5
9
100
AcDbSymbolTable
70
2
0
APPID
5
12
100
AcDbSymbolTableRecord
100
AcDbRegAppTableRecord
2
ACAD
70
0
0
ENDTAB
0
TABLE
2
DIMSTYLE
5
A
100
AcDbSymbolTable
70
1
0
ENDTAB
0
TABLE
2
BLOCK_RECORD
5
1
100
AcDbSymbolTable
70
1
0
BLOCK_RECORD
5
1F
100
AcDbSymbolTableRecord
100
AcDbBlockTableRecord
2
*MODEL_SPACE
0
BLOCK_RECORD
5
1B
100
AcDbSymbolTableRecord
100
AcDbBlockTableRecord
2
*PAPER_SPACE
0
ENDTAB
0
ENDSEC
0
SECTION
2
BLOCKS
0
BLOCK
5
20
100
AcDbEntity
100
AcDbBlockBegin
2
*MODEL_SPACE
0
ENDBLK
5
21
100
AcDbEntity
100
AcDbBlockEnd
0
BLOCK
5
1C
100
AcDbEntity
100
AcDbBlockBegin
2
*PAPER_SPACE
0
ENDBLK
5
1D
100
AcDbEntity
100
AcDbBlockEnd
0
ENDSEC
0
SECTION
2
ENTITIES
0
LWPOLYLINE
5
100
100
AcDbEntity
8
0
100
AcDbPolyline
90
29
70
1
43
0.0
10
203.63713545202251
20
178.9090838151063
42
-0.77181220548825635
10
203.08142925926145
20
177.05587066969537
42
0.26997969860661808
10
187.05984919661802
20
168.46436381364578
42
-0.26057155830174356
10
184.50412457204203
20
167.03546365451032
10
183.95937369722731
20
167.03546660544686
10
183.95952487537829
20
167.0353729178251
42
0.32129627810351336
10
176.86022461789673
20
161.94840607888352
42
0.13660581411242578
10
176.71073705515283
20
159.27050938379867
42
-0.43771739725162068
10
174.80577100035606
20
156.54154868685501
10
171.39899044823511
20
156.07468655327574
42
0.16374213499422388
10
157.11557505031305
20
148.98384706666721
10
53.742279094946866
20
45.610551111301433
42
0.0593693228711542
10
45.692613140326387
20
35.382996270626414
42
-0.043889752577039746
10
44.912106657314929
20
34.325721938210705
10
14.584000000000024
20
2.6645352591003757e-14
10
1.5000000000000036
20
2.8247680463008158e-14
42
0.41421356237309126
10
1.7836243111412104e-14
20
1.5000000000000124
10
1.7763568394002505e-14
20
14.584251073631931
10
34.311399082889942
20
44.899419289511101
42
-0.044528802407699755
10
35.382996270626549
20
45.69261314032638
42
0.059369322871159175
10
45.610551111302087
20
53.742279094947243
10
148.98386677237798
20
157.11559475602263
42
0.16374407073279446
10
156.07473185358009
20
171.39919692773501
10
156.54152402716679
20
174.80565793402815
42
-0.43771298880490345
10
159.27043761758006
20
176.71065174295268
42
0.13658064580573143
10
161.94786305345082
20
176.86004028056129
42
0.31737447767634058
10
167.03460648271994
20
183.85222865350062
42
-0.38677610610777635
10
169.79372354729196
20
186.79967124032729
10
170.3042119518089
20
186.84074063526737
42
-0.15824463969442551
0
LWPOLYLINE
5
101
100
AcDbEntity
8
0
100
AcDbPolyline
90
8
70
1
43
0.0
10
6.000000000000032
20
3.0000000000000115
42
-0.41421356237309503
10
3.0000000000000249
20
6.0000000000000187
10
3.0000000000000355
20
10.833075645934318
42
-0.21434482791212622
10
4.6798456816981995
20
14.571601465379933
10
11.722662380591341
20
20.826269589968508
42
-0.86758558782303807
10
20.194706965158336
20
10.881159621819725
10
14.724042112903931
20
4.6893942519120841
42
-0.21501202550755691
10
10.977058048255817
20
2.9999999999999978
0
LWPOLYLINE
5
102
100
AcDbEntity
8
0
100
AcDbPolyline
90
4
70
1
43
0.0
10
170.03543024356833
20
179.53551446854405
10
170.03541080685227
20
181.03551448929804
42
-0.99999999999999989
10
173.03541080659986
20
181.03555332096602
10
173.03543024331776
20
179.53555334197796
42
-0.99999999999999989
0
LWPOLYLINE
5
103
100
AcDbEntity
8
0
100
AcDbPolyline
90
6
70
1
43
0.0
10
177.4319382725908
20
180.70044509497453
42
-0.65144858424586305
10
178.27464237435348
20
182.32421098552837
42
-0.036507361661791464
10
193.81086201666216
20
180.2030859864868
42
-0.84451493660612531
10
193.73107228140941
20
178.23292368603151
42
0.088920933628812773
10
184.778911435677
20
175.41366447295988
42
-0.35858108593007276
10
181.04689494767064
20
176.19402831292268
0
CIRCLE
5
104
100
AcDbEntity
8
0
100
AcDbCircle
10
27.270815280171323
20
27.270815280171313
30
0
40
1.5000000000000036
210
0
220
0
230
1
0
LWPOLYLINE
5
105
100
AcDbEntity
8
0
100
AcDbPolyline
90
4
70
1
43
0.0
10
173.03563756829564
20
163.53555336567297
10
173.03565700501474
20
162.035553343446
42
-0.9999999925494194
10
170.03565700526565
20
162.03551444766225
10
170.0356375685482
20
163.53551446988683
42
-0.9999999925494194
0
ARC
5
106
100
AcDbEntity
8
0
100
AcDbCircle
10
181.03553390513503
20
171.53565700514002
30
0
40
1.4999999999997988
210
-0
220
0
230
1
100
AcDbArc
50
-89.999256718315564
51
90.00074180290423
0
LINE
5
107
100
AcDbEntity
8
0
100
AcDbLine
10
181.03551448478041
20
173.03565700501409
30
0
11
179.53551448942403
21
173.03563756829689
31
0
0
ARC
5
108
100
AcDbEntity
8
0
100
AcDbCircle
10
179.53553390526105
20
171.535637568423
30
0
40
1.4999999999995584
210
0
220
0
230
1
100
AcDbArc
50
90.000741630344535
51
270.00074163034344
0
LINE
5
109
100
AcDbEntity
8
0
100
AcDbLine
10
179.53555332109804
20
170.03563756854905
30
0
11
181.03555336420402
21
170.03565700526644
31
0
0
CIRCLE
5
110
100
AcDbEntity
8
0
100
AcDbCircle
10
39.291630560343208
20
39.291630560342114
30
0
40
1.5000000000000036
210
0
220
0
230
1
0
CIRCLE
5
111
100
AcDbEntity
8
0
100
AcDbCircle
10
171.53553390593305
20
171.53553390593299
30
0
40
3.5000000000000009
210
0
220
0
230
1
0
ARC
5
112
100
AcDbEntity
8
0
100
AcDbCircle
10
163.53553390660406
20
171.53543024344199
30
0
40
1.499999999999547
210
-0
220
0
230
1
100
AcDbArc
50
-89.999256727062502
51
90.000740858102731
0
LINE
5
113
100
AcDbEntity
8
0
100
AcDbLine
10
163.53551451098429
20
173.03543024331614
30
0
11
162.0355144461891
21
173.03541080659949
31
0
0
ARC
5
114
100
AcDbEntity
8
0
100
AcDbCircle
10
162.03553390673005
20
171.53541080672497
30
0
40
1.5000000000007416
210
0
220
0
230
1
100
AcDbArc
50
90.000743337909185
51
270.00074124659949
0
LINE
5
115
100
AcDbEntity
8
0
100
AcDbLine
10
162.03555331252065
20
170.0354108068498
30
0
11
163.53555336544406
21
170.03543024356867
31
0
0
ENDSEC
0
SECTION
2
OBJECTS
0
DICTIONARY
5
C
100
AcDbDictionary
3
ACAD_GROUP
350
D
3
ACAD_MLINESTYLE
350
17
0
DICTIONARY
5
D
100
AcDbDictionary
0
DICTIONARY
5
1A
330
C
100
AcDbDictionary
0
DICTIONARY
5
17
100
AcDbDictionary
0
ENDSEC
0
EOF
