0
SECTION
2
HEADER
9
$INSUNITS
70
4
9
$ACADVER
1
AC1014
9
$HANDSEED
5
FFFF
0
ENDSEC
0
SECTION
2
TABLES
0
TABLE
2
VPORT
5
8
100
AcDbSymbolTable
0
ENDTAB
0
TABLE
2
LTYPE
5
5
100
AcDbSymbolTable
0
LTYPE
5
14
100
AcDbSymbolTableRecord
100
AcDbLinetypeTableRecord
2
BYBLOCK
70
0
0
LTYPE
5
15
100
AcDbSymbolTableRecord
100
AcDbLinetypeTableRecord
2
BYLAYER
70
0
0
ENDTAB
0
TABLE
2
LAYER
5
2
100
AcDbSymbolTable
70
2
0
LAYER
5
50
100
AcDbSymbolTableRecord
100
AcDbLayerTableRecord
2
0
70
0
6
CONTINUOUS
0
ENDTAB
0
TABLE
2
STYLE
5
3
100
AcDbSymbolTable
70
1
0
STYLE
5
11
100
AcDbSymbolTableRecord
100
AcDbTextStyleTableRecord
2
STANDARD
70
0
0
ENDTAB
0
TABLE
2
VIEW
5
6
100
AcDbSymbolTable
70
0
0
ENDTAB
0
TABLE
2
UCS
5
7
100
AcDbSymbolTable
70
0
0
ENDTAB
0
TABLE
2
APPID
5
9
100
AcDbSymbolTable
70
2
0
APPID
5
12
100
AcDbSymbolTableRecord
100
AcDbRegAppTableRecord
2
ACAD
70
0
0
ENDTAB
0
TABLE
2
DIMSTYLE
5
A
100
AcDbSymbolTable
70
1
0
ENDTAB
0
TABLE
2
BLOCK_RECORD
5
1
100
AcDbSymbolTable
70
1
0
BLOCK_RECORD
5
1F
100
AcDbSymbolTableRecord
100
AcDbBlockTableRecord
2
*MODEL_SPACE
0
BLOCK_RECORD
5
1B
100
AcDbSymbolTableRecord
100
AcDbBlockTableRecord
2
*PAPER_SPACE
0
ENDTAB
0
ENDSEC
0
SECTION
2
BLOCKS
0
BLOCK
5
20
100
AcDbEntity
100
AcDbBlockBegin
2
*MODEL_SPACE
0
ENDBLK
5
21
100
AcDbEntity
100
AcDbBlockEnd
0
BLOCK
5
1C
100
AcDbEntity
100
AcDbBlockBegin
2
*PAPER_SPACE
0
ENDBLK
5
1D
100
AcDbEntity
100
AcDbBlockEnd
0
ENDSEC
0
SECTION
2
ENTITIES
0
ARC
5
100
100
AcDbEntity
8
0
100
AcDbCircle
10
179.53553390526096
20
-171.53563756842289
30
0
40
1.4999999999995177
210
0
220
-0
230
1
100
AcDbArc
50
89.999259223430215
51
269.99925836965548
0
LINE
5
101
100
AcDbEntity
8
0
100
AcDbLine
10
179.53551448942395
20
-173.03563756829675
30
0
11
181.03551448478032
21
-173.03565700501395
31
0
0
ARC
5
102
100
AcDbEntity
8
0
100
AcDbCircle
10
181.03553390513497
20
-171.53565700513994
30
0
40
1.4999999999997233
210
0
220
0
230
1
100
AcDbArc
50
-90.000741802905281
51
89.999256718315564
0
LINE
5
103
100
AcDbEntity
8
0
100
AcDbLine
10
181.03555336420396
20
-170.03565700526636
30
0
11
179.53555329874621
21
-170.03563756854874
31
0
0
LINE
5
104
100
AcDbEntity
8
0
100
AcDbLine
10
179.53555332109804
20
170.03563756854916
30
0
11
181.03555336420402
21
170.03565700526656
31
0
0
ARC
5
105
100
AcDbEntity
8
0
100
AcDbCircle
10
181.03553390513503
20
171.53565700514014
30
0
40
1.4999999999997988
210
-0
220
0
230
1
100
AcDbArc
50
-89.999256718315564
51
90.00074180290423
0
LINE
5
106
100
AcDbEntity
8
0
100
AcDbLine
10
181.03551448478041
20
173.03565700501423
30
0
11
179.53551448942403
21
173.03563756829703
31
0
0
ARC
5
107
100
AcDbEntity
8
0
100
AcDbCircle
10
179.53553390526105
20
171.53563756842317
30
0
40
1.4999999999995228
210
0
220
0
230
1
100
AcDbArc
50
90.000741630344535
51
270.00074163034344
0
LWPOLYLINE
5
108
100
AcDbEntity
8
0
100
AcDbPolyline
90
4
70
1
43
0.0
10
173.03565700501466
20
-162.03555334344586
10
173.03563756829558
20
-163.53555336567302
42
-0.9999999925494194
10
170.03563756854814
20
-163.53551446988661
10
170.03565700526559
20
-162.03551444766197
42
-0.9999999925494194
0
LWPOLYLINE
5
109
100
AcDbEntity
8
0
100
AcDbPolyline
90
4
70
1
43
0.0
10
173.03563756829561
20
163.5355533656732
10
173.03565700501468
20
162.03555334344614
42
-0.9999999925494194
10
170.03565700526562
20
162.03551444766242
10
170.03563756854845
20
163.53551444753515
42
-0.99999999999999989
0
LWPOLYLINE
5
110
100
AcDbEntity
8
0
100
AcDbPolyline
90
21
70
1
43
0.0
10
168.18684814172397
20
159.84796009167707
42
-0.14612193728196707
10
167.53566299944697
20
162.04245881970138
42
0.00087209368659321327
10
167.53564374353584
20
163.5285053311938
42
-0.35649264309204087
10
170.73012444036468
20
167.45358809210586
42
0.29985432014229385
10
175.61745879753965
20
172.34104892310722
42
-0.35645493670827005
10
179.54192329793753
20
175.53563246537749
42
0.00080515350084938331
10
181.0290408501134
20
175.53565173516625
42
-0.6494305133366568
10
184.01228170345374
20
168.86377142652628
42
0.18493599279418818
10
179.53555332109804
20
157.17427202009063
10
179.53555332109798
20
-157.17427202009034
42
0.18493599279418818
10
184.01228170345362
20
-168.86377142652603
42
-0.64943051333362212
10
181.02904085014751
20
-175.53565173516603
42
0.00080515350101312765
10
179.54192329793759
20
-175.53563246537726
42
-0.35645493670827771
10
175.61745879753957
20
-172.34104892310694
42
0.29985432014229119
10
170.73012444036468
20
-167.45358809210563
42
-0.35649264309128742
10
167.53564374353576
20
-163.52850533120431
42
0.00087209368652160367
10
167.53566299944691
20
-162.04245881970124
42
-0.14612193728198714
10
168.18684814172394
20
-159.84796009167664
42
0.14567660859442497
10
171.03580936280969
20
-150.27755141250594
10
171.03775663120297
20
2.5915621506555908e-05
10
171.03580936280957
20
150.27755141250617
42
0.14567660859442627
0
ENDSEC
0
SECTION
2
OBJECTS
0
DICTIONARY
5
C
100
AcDbDictionary
3
ACAD_GROUP
350
D
3
ACAD_MLINESTYLE
350
17
0
DICTIONARY
5
D
100
AcDbDictionary
0
DICTIONARY
5
1A
330
C
100
AcDbDictionary
0
DICTIONARY
5
17
100
AcDbDictionary
0
ENDSEC
0
EOF
