0
SECTION
2
HEADER
9
$INSUNITS
70
4
9
$ACADVER
1
AC1014
9
$HANDSEED
5
FFFF
0
ENDSEC
0
SECTION
2
TABLES
0
TABLE
2
VPORT
5
8
100
AcDbSymbolTable
0
ENDTAB
0
TABLE
2
LTYPE
5
5
100
AcDbSymbolTable
0
LTYPE
5
14
100
AcDbSymbolTableRecord
100
AcDbLinetypeTableRecord
2
BYBLOCK
70
0
0
LTYPE
5
15
100
AcDbSymbolTableRecord
100
AcDbLinetypeTableRecord
2
BYLAYER
70
0
0
ENDTAB
0
TABLE
2
LAYER
5
2
100
AcDbSymbolTable
70
2
0
LAYER
5
50
100
AcDbSymbolTableRecord
100
AcDbLayerTableRecord
2
0
70
0
6
CONTINUOUS
0
ENDTAB
0
TABLE
2
STYLE
5
3
100
AcDbSymbolTable
70
1
0
STYLE
5
11
100
AcDbSymbolTableRecord
100
AcDbTextStyleTableRecord
2
STANDARD
70
0
0
ENDTAB
0
TABLE
2
VIEW
5
6
100
AcDbSymbolTable
70
0
0
ENDTAB
0
TABLE
2
UCS
5
7
100
AcDbSymbolTable
70
0
0
ENDTAB
0
TABLE
2
APPID
5
9
100
AcDbSymbolTable
70
2
0
APPID
5
12
100
AcDbSymbolTableRecord
100
AcDbRegAppTableRecord
2
ACAD
70
0
0
ENDTAB
0
TABLE
2
DIMSTYLE
5
A
100
AcDbSymbolTable
70
1
0
ENDTAB
0
TABLE
2
BLOCK_RECORD
5
1
100
AcDbSymbolTable
70
1
0
BLOCK_RECORD
5
1F
100
AcDbSymbolTableRecord
100
AcDbBlockTableRecord
2
*MODEL_SPACE
0
BLOCK_RECORD
5
1B
100
AcDbSymbolTableRecord
100
AcDbBlockTableRecord
2
*PAPER_SPACE
0
ENDTAB
0
ENDSEC
0
SECTION
2
BLOCKS
0
BLOCK
5
20
100
AcDbEntity
100
AcDbBlockBegin
2
*MODEL_SPACE
0
ENDBLK
5
21
100
AcDbEntity
100
AcDbBlockEnd
0
BLOCK
5
1C
100
AcDbEntity
100
AcDbBlockBegin
2
*PAPER_SPACE
0
ENDBLK
5
1D
100
AcDbEntity
100
AcDbBlockEnd
0
ENDSEC
0
SECTION
2
ENTITIES
0
CIRCLE
5
100
100
AcDbEntity
8
0
100
AcDbCircle
10
15.250000000000021
20
-15.249999999999993
30
0
40
1.5000000000000013
210
-0
220
0
230
1
0
LWPOLYLINE
5
101
100
AcDbEntity
8
0
100
AcDbPolyline
90
4
70
1
43
0.0
10
40.250000000000234
20
-7.5000000000051052
10
40.250000000000234
20
7.4999999999949152
42
-0.99999999999999989
10
42.250000000000192
20
7.4999999999948974
10
42.250000000000192
20
-7.5000000000051088
42
-0.99999999999999989
0
LWPOLYLINE
5
102
100
AcDbEntity
8
0
100
AcDbPolyline
90
8
70
1
43
0.0
10
22.224993311821599
20
-3.0000000000051044
10
31.250000000000213
20
-3.0000000000051017
42
-0.41421356237309365
10
34.25000000000022
20
-6.0000000000051035
10
34.250000000000178
20
-10.674574466859506
42
-0.40877013128654643
10
31.305858987090822
20
-13.674054384038641
42
0.00078832382494891772
10
28.140598192400162
20
-13.737993071762219
42
-0.22071391801758228
10
25.827090815860885
20
-12.725067655293449
10
20.538850482729924
20
-6.7397725866446727
42
-0.64607424289855786
0
CIRCLE
5
103
100
AcDbEntity
8
0
100
AcDbCircle
10
2.1316282072803006e-13
20
-5.1056528279814523e-12
30
0
40
2.25
210
-0
220
0
230
1
0
LWPOLYLINE
5
104
100
AcDbEntity
8
0
100
AcDbPolyline
90
8
70
1
43
0.0
10
-40.383907994335821
20
-17.576628348121478
42
-0.66356670162281639
10
-41.683024282760087
20
-15.136679559256779
42
0.11509302667818602
10
-36.90785903099821
20
-5.3333333333384427
42
-0.35000111041852489
10
-33.982870901867592
20
-3.0000000000051079
10
-22.225188669571203
20
-3.0000000000051177
42
-0.64607259778738768
10
-20.539038924107871
20
-6.739764758574025
10
-27.679275790345116
20
-14.821247761379928
42
-0.19379877219900624
10
-31.687502784210331
20
-16.82864941137197
42
0.0021734447344156599
0
CIRCLE
5
105
100
AcDbEntity
8
0
100
AcDbCircle
10
-49.999999999999787
20
19.999999999994895
30
0
40
1.4999999999999991
210
-0
220
0
230
1
0
LWPOLYLINE
5
106
100
AcDbEntity
8
0
100
AcDbPolyline
90
8
70
1
43
0.0
10
-31.68736506447086
20
16.828638168837472
42
-0.0021734920010187102
10
-40.383959428462745
20
17.576632997186721
42
0.66355430441270125
10
-41.683024282760215
20
15.136679559246506
42
-0.1150930266781858
10
-36.907859030998296
20
5.3333333333282296
42
0.35000111041852977
10
-33.982870901867592
20
2.9999999999948921
10
-22.22499331181254
20
2.9999999999948903
42
0.6460742428985583
10
-20.538850482720864
20
6.7397725866344622
10
-27.679155691302704
20
14.821257326619801
42
0.19379760366056609
0
CIRCLE
5
107
100
AcDbEntity
8
0
100
AcDbCircle
10
15.249999999999986
20
15.250000000000023
30
0
40
1.4999999999999991
210
-0
220
0
230
1
0
CIRCLE
5
108
100
AcDbEntity
8
0
100
AcDbCircle
10
-39.291630560342625
20
-39.291630560342625
30
0
40
1.9999999999999929
210
-0
220
0
230
1
0
CIRCLE
5
109
100
AcDbEntity
8
0
100
AcDbCircle
10
50.00000000000032
20
-15.000000000005102
30
0
40
1.4999999999999991
210
-0
220
0
230
1
0
CIRCLE
5
110
100
AcDbEntity
8
0
100
AcDbCircle
10
27.270815280171306
20
27.27081528017132
30
0
40
1.9999999999999973
210
-0
220
0
230
1
0
CIRCLE
5
111
100
AcDbEntity
8
0
100
AcDbCircle
10
-27.270815280171306
20
-27.270815280171313
30
0
40
1.9999999999999973
210
-0
220
0
230
1
0
CIRCLE
5
112
100
AcDbEntity
8
0
100
AcDbCircle
10
-39.291630560342625
20
39.291630560342618
30
0
40
1.9999999999999973
210
-0
220
0
230
1
0
CIRCLE
5
113
100
AcDbEntity
8
0
100
AcDbCircle
10
39.291630560342625
20
39.291630560342654
30
0
40
1.9999999999999973
210
-0
220
0
230
1
0
CIRCLE
5
114
100
AcDbEntity
8
0
100
AcDbCircle
10
-49.999999999999787
20
-20.000000000005112
30
0
40
1.4999999999999991
210
-0
220
0
230
1
0
CIRCLE
5
115
100
AcDbEntity
8
0
100
AcDbCircle
10
50.00000000000032
20
14.9999999999949
30
0
40
1.5000000000000013
210
-0
220
0
230
1
0
CIRCLE
5
116
100
AcDbEntity
8
0
100
AcDbCircle
10
39.291630560342625
20
-39.291630560342611
30
0
40
1.9999999999999973
210
-0
220
0
230
1
0
LWPOLYLINE
5
117
100
AcDbEntity
8
0
100
AcDbPolyline
90
8
70
1
43
0.0
10
31.30585898705991
20
13.67405438402896
42
-0.40877013128661704
10
34.250000000000213
20
10.674574466849293
10
34.250000000000213
20
5.9999999999948974
42
-0.41421356237309503
10
31.250000000000213
20
2.9999999999948965
10
22.225188669562179
20
2.9999999999948699
42
-0.64607259778738324
10
20.539038924098811
20
6.739764758563803
10
25.827224719065764
20
12.725054100963529
42
-0.22071509793492847
10
28.140740891007603
20
13.737989964146351
42
0.00078828828400101492
0
CIRCLE
5
118
100
AcDbEntity
8
0
100
AcDbCircle
10
27.270815280171306
20
-27.270815280171309
30
0
40
1.9999999999999973
210
-0
220
0
230
1
0
CIRCLE
5
119
100
AcDbEntity
8
0
100
AcDbCircle
10
-27.270815280171306
20
27.27081528017132
30
0
40
1.9999999999999973
210
-0
220
0
230
1
0
CIRCLE
5
120
100
AcDbEntity
8
0
100
AcDbCircle
10
-15.249999999999986
20
-15.250000000000004
30
0
40
1.5000000000000013
210
-0
220
0
230
1
0
CIRCLE
5
121
100
AcDbEntity
8
0
100
AcDbCircle
10
-15.250000000000021
20
15.250000000000011
30
0
40
1.4999999999999991
210
-0
220
0
230
1
0
LWPOLYLINE
5
122
100
AcDbEntity
8
0
100
AcDbPolyline
90
34
70
1
43
0.0
10
34.325721938210734
20
44.912106657314894
10
11.162614877722955
20
24.446603187065218
42
-0.18291129302981599
10
10.500493728105377
20
24.195999999994857
10
-10.500314000000042
20
24.195999999994857
42
-0.18291009355365931
10
-11.162431670475108
20
24.446600113122248
10
-34.311399082889871
20
44.899419289511073
42
0.9412808303322544
10
-44.912106657314865
20
34.325721938210727
10
-40.005485935134203
20
28.772348611319636
42
-0.67948317467479169
10
-42.531828162032035
20
23.798907730800607
42
-0.0017665447657291653
10
-49.551122194513752
20
24.477556109721807
42
0.82770393771698481
10
-52.061552812808642
20
15.999999999994776
42
-0.60961179679779209
10
-52.061552812808614
20
-16.000000000005084
42
0.82770393771743178
10
-49.551122194540291
20
-24.477556109733488
42
-0.0017665411306166015
10
-42.531842610899837
20
-23.798909076266035
42
-0.67948148347169224
10
-40.005491118786551
20
-28.77233951531769
10
-44.899419289511044
20
-34.311399082889878
42
0.9412808303322584
10
-34.325721938210698
20
-44.912106657314858
10
-11.16261487773464
20
-24.446603187075521
42
-0.18291129302982356
10
-10.500493728117064
20
-24.196000000005149
10
10.500314000011732
20
-24.196000000005164
42
-0.18291009355365873
10
11.162431670486797
20
-24.446600113132554
10
34.311399082889871
20
-44.899419289511059
42
0.9412808303322544
10
44.912106657314865
20
-34.325721938210719
10
36.277113235254134
20
-24.552530802573244
42
-0.6419952136562761
10
38.490706599687449
20
-19.566366853279462
42
-0.0028831614280027725
10
50.000000000000497
20
-19.500000000006128
42
0.99999999999999989
10
50.000000000000135
20
-10.500000000004077
42
-0.41421356237309415
10
48.250000000000206
20
-8.7500000000049898
10
48.250000000000227
20
8.7499999999947882
42
-0.41421356237309614
10
50.00000000000032
20
10.499999999994893
42
0.99999999999999989
10
50.000000000001357
20
19.49999999999477
42
-0.0028831494625066356
10
38.490754362434345
20
19.56636630241649
42
-0.64199359154196989
10
36.277151632591043
20
24.552519815938801
10
44.899419289511037
20
34.311399082889899
42
0.94128083033225562
0
ENDSEC
0
SECTION
2
OBJECTS
0
DICTIONARY
5
C
100
AcDbDictionary
3
ACAD_GROUP
350
D
3
ACAD_MLINESTYLE
350
17
0
DICTIONARY
5
D
100
AcDbDictionary
0
DICTIONARY
5
1A
330
C
100
AcDbDictionary
0
DICTIONARY
5
17
100
AcDbDictionary
0
ENDSEC
0
EOF
