0
SECTION
2
HEADER
9
$INSUNITS
70
4
9
$ACADVER
1
AC1014
9
$HANDSEED
5
FFFF
0
ENDSEC
0
SECTION
2
TABLES
0
TABLE
2
VPORT
5
8
100
AcDbSymbolTable
0
ENDTAB
0
TABLE
2
LTYPE
5
5
100
AcDbSymbolTable
0
LTYPE
5
14
100
AcDbSymbolTableRecord
100
AcDbLinetypeTableRecord
2
BYBLOCK
70
0
0
LTYPE
5
15
100
AcDbSymbolTableRecord
100
AcDbLinetypeTableRecord
2
BYLAYER
70
0
0
ENDTAB
0
TABLE
2
LAYER
5
2
100
AcDbSymbolTable
70
2
0
LAYER
5
50
100
AcDbSymbolTableRecord
100
AcDbLayerTableRecord
2
0
70
0
6
CONTINUOUS
0
ENDTAB
0
TABLE
2
STYLE
5
3
100
AcDbSymbolTable
70
1
0
STYLE
5
11
100
AcDbSymbolTableRecord
100
AcDbTextStyleTableRecord
2
STANDARD
70
0
0
ENDTAB
0
TABLE
2
VIEW
5
6
100
AcDbSymbolTable
70
0
0
ENDTAB
0
TABLE
2
UCS
5
7
100
AcDbSymbolTable
70
0
0
ENDTAB
0
TABLE
2
APPID
5
9
100
AcDbSymbolTable
70
2
0
APPID
5
12
100
AcDbSymbolTableRecord
100
AcDbRegAppTableRecord
2
ACAD
70
0
0
ENDTAB
0
TABLE
2
DIMSTYLE
5
A
100
AcDbSymbolTable
70
1
0
ENDTAB
0
TABLE
2
BLOCK_RECORD
5
1
100
AcDbSymbolTable
70
1
0
BLOCK_RECORD
5
1F
100
AcDbSymbolTableRecord
100
AcDbBlockTableRecord
2
*MODEL_SPACE
0
BLOCK_RECORD
5
1B
100
AcDbSymbolTableRecord
100
AcDbBlockTableRecord
2
*PAPER_SPACE
0
ENDTAB
0
ENDSEC
0
SECTION
2
BLOCKS
0
BLOCK
5
20
100
AcDbEntity
100
AcDbBlockBegin
2
*MODEL_SPACE
0
ENDBLK
5
21
100
AcDbEntity
100
AcDbBlockEnd
0
BLOCK
5
1C
100
AcDbEntity
100
AcDbBlockBegin
2
*PAPER_SPACE
0
ENDBLK
5
1D
100
AcDbEntity
100
AcDbBlockEnd
0
ENDSEC
0
SECTION
2
ENTITIES
0
LWPOLYLINE
5
100
100
AcDbEntity
8
0
100
AcDbPolyline
90
8
70
1
43
0.0
10
-5.999999999994885
20
34.250000000000227
42
-0.41421356237309515
10
-2.9999999999948845
20
31.25000000000022
10
-2.9999999999948788
20
22.225188669562165
42
-0.64607259778738602
10
-6.7397647585637923
20
20.539038924098826
10
-12.725054100963851
20
25.827224719065391
42
-0.22071509793119384
10
-13.737989964146969
20
28.140740891007582
42
0.00078828828400104062
10
-13.674054384028949
20
31.305858987059921
42
-0.40877013128661638
10
-10.674574466849283
20
34.250000000000227
0
LWPOLYLINE
5
101
100
AcDbEntity
8
0
100
AcDbPolyline
90
34
70
1
43
0.0
10
34.325721938210734
20
44.912106657314858
10
24.55253080257329
20
36.277113235254099
42
-0.64199521365804213
10
19.566366853279604
20
38.490706599677708
42
-0.002883161428005215
10
19.500000000006143
20
50.000000000000497
42
0.99999999999999989
10
10.500000000004091
20
50.000000000000142
42
-0.41421356237309415
10
8.750000000005004
20
48.250000000000213
10
-8.749999999994774
20
48.250000000000227
42
-0.41421356237309614
10
-10.499999999994881
20
50.000000000000327
42
0.99999999999999989
10
-19.499999999994767
20
50.000000000001364
42
-0.0028831494625066356
10
-19.566366302416469
20
38.490754362434345
42
-0.64199359154196833
10
-24.552519815938787
20
36.277151632591035
10
-34.311399082889885
20
44.899419289511044
42
0.9412808303322544
10
-44.912106657314879
20
34.325721938210719
10
-24.446603187065215
20
11.162614877722962
42
-0.18291129302981873
10
-24.195999999994847
20
10.500493728105372
10
-24.195999999994854
20
-10.500314000000039
42
-0.18291009355366125
10
-24.446600113122248
20
-11.162431670475108
10
-44.899419289511052
20
-34.311399082889878
42
0.9412808303322544
10
-34.325721938210719
20
-44.912106657314865
10
-28.772348611319693
20
-40.005485935134139
42
-0.67948317466904107
10
-23.798907730800607
20
-42.531828162032014
42
-0.0017665447657291653
10
-24.477556109721803
20
-49.551122194513738
42
0.82770393771698592
10
-15.999999999993936
20
-52.061552812809062
42
-0.60961179679778998
10
16.000000000005091
20
-52.061552812808614
42
0.82770393771702022
10
24.477556109730326
20
-49.551122194509432
42
-0.0017665411306088299
10
23.798909076266025
20
-42.531842610899844
42
-0.67948148347169024
10
28.772339515317697
20
-40.005491118786537
10
34.311399082889885
20
-44.899419289511052
42
0.9412808303322544
10
44.912106657314865
20
-34.325721938210705
10
24.446603187075532
20
-11.162614877734638
42
-0.18291129302982587
10
24.19600000000516
20
-10.500493728117053
10
24.196000000005178
20
10.500314000011716
42
-0.18291009355366103
10
24.446600113132572
20
11.162431670486782
10
44.899419289511073
20
34.311399082889864
42
0.9412808303322544
0
LWPOLYLINE
5
102
100
AcDbEntity
8
0
100
AcDbPolyline
90
8
70
1
43
0.0
10
-14.821257326619792
20
-27.679155691302711
10
-6.7397725866344551
20
-20.538850482720878
42
-0.64607424289855719
10
-2.9999999999948814
20
-22.224993311812554
10
-2.999999999994885
20
-33.982870901867578
42
-0.35000111041853005
10
-5.3333333333282269
20
-36.907859030998289
42
0.11509302667818512
10
-15.136679559246513
20
-41.683024282760172
42
-0.66355430441736296
10
-17.576632997184589
20
-40.383959428437272
42
0.0021734920010028341
10
-16.828638168840847
20
-31.687365064508917
42
-0.1937976036605549
0
LWPOLYLINE
5
103
100
AcDbEntity
8
0
100
AcDbPolyline
90
8
70
1
43
0.0
10
13.737993071762242
20
28.140598192400176
42
-0.22071391801758333
10
12.725067655293461
20
25.827090815860881
10
6.7397725866446825
20
20.53885048272992
42
-0.64607424289855664
10
3.0000000000051159
20
22.224993311821596
10
3.000000000005115
20
31.25000000000022
42
-0.41421356237309365
10
6.0000000000051168
20
34.25000000000022
10
10.674574466859516
20
34.250000000000227
42
-0.40877013128656725
10
13.674054384038513
20
31.305858987091749
42
0.0007883238249665372
0
CIRCLE
5
104
100
AcDbEntity
8
0
100
AcDbCircle
10
27.270815280171323
20
-27.270815280171309
30
0
40
2.25
210
0
220
0
230
1
0
CIRCLE
5
105
100
AcDbEntity
8
0
100
AcDbCircle
10
15.250000000000012
20
-15.249999999999995
30
0
40
1.5000000000000013
210
0
220
0
230
1
0
LWPOLYLINE
5
106
100
AcDbEntity
8
0
100
AcDbPolyline
90
8
70
1
43
0.0
10
5.3333333333384489
20
-36.90785903099821
42
-0.35000111041852511
10
3.0000000000051164
20
-33.982870901867578
10
3.0000000000051141
20
-22.22518866957121
42
-0.64607259778738502
10
6.7397647585740339
20
-20.539038924107871
10
14.821247761379929
20
-27.67927579034513
42
-0.19379877219791836
10
16.828649411372133
20
-31.687502784210466
42
0.0021734447344188353
10
17.576628348121485
20
-40.383907994335829
42
-0.66356670162281639
10
15.136679559256788
20
-41.683024282760101
42
0.11509302667818602
0
CIRCLE
5
107
100
AcDbEntity
8
0
100
AcDbCircle
10
-15.250000000000012
20
15.249999999999995
30
0
40
1.4999999999999991
210
0
220
0
230
1
0
CIRCLE
5
108
100
AcDbEntity
8
0
100
AcDbCircle
10
5.1159076974727205e-12
20
2.2429198433898622e-13
30
0
40
2.25
210
0
220
0
230
1
0
CIRCLE
5
109
100
AcDbEntity
8
0
100
AcDbCircle
10
15.000000000005116
20
50.000000000000327
30
0
40
1.5000000000000002
210
0
220
0
230
1
0
CIRCLE
5
110
100
AcDbEntity
8
0
100
AcDbCircle
10
-14.999999999994886
20
50.000000000000327
30
0
40
1.5000000000000002
210
0
220
0
230
1
0
CIRCLE
5
111
100
AcDbEntity
8
0
100
AcDbCircle
10
-19.999999999994888
20
-49.999999999999787
30
0
40
1.5000000000000002
210
0
220
0
230
1
0
CIRCLE
5
112
100
AcDbEntity
8
0
100
AcDbCircle
10
-15.250000000000002
20
-15.250000000000007
30
0
40
1.4999999999999991
210
0
220
0
230
1
0
CIRCLE
5
113
100
AcDbEntity
8
0
100
AcDbCircle
10
-39.291630560342639
20
39.291630560342611
30
0
40
2.25
210
0
220
0
230
1
0
LWPOLYLINE
5
114
100
AcDbEntity
8
0
100
AcDbPolyline
90
4
70
1
43
0.0
10
-7.4999999999948921
20
40.250000000000227
10
7.5000000000051159
20
40.250000000000227
42
0.99999999999999989
10
7.5000000000051248
20
42.25000000000022
10
-7.499999999994885
20
42.250000000000199
42
0.99999999999999989
0
CIRCLE
5
115
100
AcDbEntity
8
0
100
AcDbCircle
10
-39.291630560342611
20
-39.291630560342632
30
0
40
2.25
210
0
220
0
230
1
0
CIRCLE
5
116
100
AcDbEntity
8
0
100
AcDbCircle
10
15.250000000000004
20
15.250000000000005
30
0
40
1.5000000000000013
210
0
220
0
230
1
0
CIRCLE
5
117
100
AcDbEntity
8
0
100
AcDbCircle
10
39.291630560342618
20
39.291630560342618
30
0
40
2.25
210
0
220
0
230
1
0
CIRCLE
5
118
100
AcDbEntity
8
0
100
AcDbCircle
10
-27.270815280171309
20
-27.270815280171323
30
0
40
2.25
210
0
220
0
230
1
0
CIRCLE
5
119
100
AcDbEntity
8
0
100
AcDbCircle
10
-27.270815280171306
20
27.270815280171323
30
0
40
2.25
210
0
220
0
230
1
0
CIRCLE
5
120
100
AcDbEntity
8
0
100
AcDbCircle
10
39.291630560342632
20
-39.291630560342611
30
0
40
2.25
210
0
220
0
230
1
0
CIRCLE
5
121
100
AcDbEntity
8
0
100
AcDbCircle
10
20.000000000005119
20
-49.999999999999787
30
0
40
1.5000000000000002
210
0
220
0
230
1
0
CIRCLE
5
122
100
AcDbEntity
8
0
100
AcDbCircle
10
27.270815280171323
20
27.270815280171309
30
0
40
2.25
210
0
220
0
230
1
0
ENDSEC
0
SECTION
2
OBJECTS
0
DICTIONARY
5
C
100
AcDbDictionary
3
ACAD_GROUP
350
D
3
ACAD_MLINESTYLE
350
17
0
DICTIONARY
5
D
100
AcDbDictionary
0
DICTIONARY
5
1A
330
C
100
AcDbDictionary
0
DICTIONARY
5
17
100
AcDbDictionary
0
ENDSEC
0
EOF
