0
SECTION
2
HEADER
9
$INSUNITS
70
4
9
$ACADVER
1
AC1014
9
$HANDSEED
5
FFFF
0
ENDSEC
0
SECTION
2
TABLES
0
TABLE
2
VPORT
5
8
100
AcDbSymbolTable
0
ENDTAB
0
TABLE
2
LTYPE
5
5
100
AcDbSymbolTable
0
LTYPE
5
14
100
AcDbSymbolTableRecord
100
AcDbLinetypeTableRecord
2
BYBLOCK
70
0
0
LTYPE
5
15
100
AcDbSymbolTableRecord
100
AcDbLinetypeTableRecord
2
BYLAYER
70
0
0
ENDTAB
0
TABLE
2
LAYER
5
2
100
AcDbSymbolTable
70
2
0
LAYER
5
50
100
AcDbSymbolTableRecord
100
AcDbLayerTableRecord
2
0
70
0
6
CONTINUOUS
0
ENDTAB
0
TABLE
2
STYLE
5
3
100
AcDbSymbolTable
70
1
0
STYLE
5
11
100
AcDbSymbolTableRecord
100
AcDbTextStyleTableRecord
2
STANDARD
70
0
0
ENDTAB
0
TABLE
2
VIEW
5
6
100
AcDbSymbolTable
70
0
0
ENDTAB
0
TABLE
2
UCS
5
7
100
AcDbSymbolTable
70
0
0
ENDTAB
0
TABLE
2
APPID
5
9
100
AcDbSymbolTable
70
2
0
APPID
5
12
100
AcDbSymbolTableRecord
100
AcDbRegAppTableRecord
2
ACAD
70
0
0
ENDTAB
0
TABLE
2
DIMSTYLE
5
A
100
AcDbSymbolTable
70
1
0
ENDTAB
0
TABLE
2
BLOCK_RECORD
5
1
100
AcDbSymbolTable
70
1
0
BLOCK_RECORD
5
1F
100
AcDbSymbolTableRecord
100
AcDbBlockTableRecord
2
*MODEL_SPACE
0
BLOCK_RECORD
5
1B
100
AcDbSymbolTableRecord
100
AcDbBlockTableRecord
2
*PAPER_SPACE
0
ENDTAB
0
ENDSEC
0
SECTION
2
BLOCKS
0
BLOCK
5
20
100
AcDbEntity
100
AcDbBlockBegin
2
*MODEL_SPACE
0
ENDBLK
5
21
100
AcDbEntity
100
AcDbBlockEnd
0
BLOCK
5
1C
100
AcDbEntity
100
AcDbBlockBegin
2
*PAPER_SPACE
0
ENDBLK
5
1D
100
AcDbEntity
100
AcDbBlockEnd
0
ENDSEC
0
SECTION
2
ENTITIES
0
CIRCLE
5
100
100
AcDbEntity
8
0
100
AcDbCircle
10
20.000000000000089
20
-9.9999999999999751
30
0
40
1.0000000000000009
210
-0
220
0
230
1
0
LWPOLYLINE
5
101
100
AcDbEntity
8
0
100
AcDbPolyline
90
10
70
1
43
0.0
10
27.562096373608405
20
-11.809758459957285
42
-0.41421356237309404
10
25.562096373608405
20
-13.809758459957289
10
25.062096373572224
20
-13.809758459957209
42
0.00012738088610378617
10
24.550695825055175
20
-13.822595194550901
42
-0.42165823234747246
10
22.500000000000089
20
-11.823237814460558
10
22.499999999999961
20
-10.82291672056539
42
-0.40681521400880444
10
24.449354518502776
20
-8.8235580645950975
42
-0.00012108593668228308
10
24.937903626428426
20
-8.8113010817701607
10
25.562096373608423
20
-8.8113010817710613
42
-0.41421356237309404
10
27.562096373608416
20
-10.811301081771056
0
CIRCLE
5
102
100
AcDbEntity
8
0
100
AcDbCircle
10
-49.999999999999787
20
19.999999999994913
30
0
40
1.4999999999999991
210
-0
220
0
230
1
0
CIRCLE
5
103
100
AcDbEntity
8
0
100
AcDbCircle
10
20.000000000000089
20
10.000000000000027
30
0
40
0.99999999999999978
210
-0
220
0
230
1
0
LWPOLYLINE
5
104
100
AcDbEntity
8
0
100
AcDbPolyline
90
8
70
1
43
0.0
10
5.4116186692473898
20
9.485676564904562
42
-0.00024851043501793792
10
4.4096325720133525
20
9.5304972878438008
42
-0.40103616798764241
10
2.5000000000000888
20
11.528454676768567
10
2.5000000000001195
20
12.529478044251501
42
-0.42752819070571818
10
4.5904572564611268
20
14.527431368219084
42
0.00024875795879816278
10
5.5884691848907195
20
14.48274395169644
42
-0.40131191216761369
10
7.5000000000000888
20
12.484701608970736
10
7.499999999999881
20
11.48372279569432
42
-0.42722099711054018
0
LWPOLYLINE
5
105
100
AcDbEntity
8
0
100
AcDbPolyline
90
8
70
1
43
0.0
10
2.5000000000000888
20
-12.529478044261404
10
2.4999999999999583
20
-11.528454676778754
42
-0.4010361680218455
10
4.409632572248718
20
-9.5304972878432075
42
-0.00024851043543682512
10
5.4116186693148958
20
-9.485676564911202
42
-0.42722099705054906
10
7.5000000000000888
20
-11.483722795704502
10
7.4999999999998446
20
-12.484701608980631
42
-0.40131191216843087
10
5.5884691848850832
20
-14.482743951706283
42
0.00024875795854711527
10
4.5904572564613098
20
-14.527431368228914
42
-0.42752819071703574
0
LWPOLYLINE
5
106
100
AcDbEntity
8
0
100
AcDbPolyline
90
6
70
1
43
0.0
10
-29.801291604569258
20
-16.676462178155496
42
-0.99999999999999989
10
-30.19870839543616
20
-11.692281212908586
42
-0.0038679621989761081
10
-14.628103277060465
20
-10.571895184765728
42
-0.43311376854562472
10
-12.499999999999893
20
-12.567788355856468
10
-12.499999999999803
20
-13.569848047191304
42
-0.39554417030320965
10
-14.371769383698494
20
-15.565733041133001
42
0.0038520117711994552
0
LWPOLYLINE
5
107
100
AcDbEntity
8
0
100
AcDbPolyline
90
4
70
1
43
0.0
10
42.250000000000213
20
-7.5000000000050884
42
-0.99999999999999989
10
40.250000000000213
20
-7.5000000000050973
10
40.250000000000199
20
7.4999999999949294
42
-0.99999999999999989
10
42.250000000000227
20
7.4999999999949116
0
CIRCLE
5
108
100
AcDbEntity
8
0
100
AcDbCircle
10
30.97600000000023
20
-5.0886378083003382e-12
30
0
40
1.5000000000000002
210
-0
220
0
230
1
0
LWPOLYLINE
5
109
100
AcDbEntity
8
0
100
AcDbPolyline
90
10
70
1
43
0.0
10
22.500000000000099
20
11.823237814450799
42
-0.42165823232556376
10
24.55069582504979
20
13.822595194541378
42
0.00012738088632168054
10
25.062096373277605
20
13.809758459954962
10
25.562096373608405
20
13.809758459947226
42
-0.41421356237309503
10
27.562096373608416
20
11.809758459947215
10
27.562096373608405
20
10.811301081760885
42
-0.41421356237309342
10
25.562096373608405
20
8.8113010817608828
10
24.937903626245959
20
8.8113010817640465
42
-0.0001210859370835177
10
24.449354518371727
20
8.8235580645881004
42
-0.40681521398972542
10
22.500000000000107
20
10.822916720555211
0
CIRCLE
5
110
100
AcDbEntity
8
0
100
AcDbCircle
10
-4.9999999999999112
20
10.000000000000025
30
0
40
0.99999999999999978
210
-0
220
0
230
1
0
CIRCLE
5
111
100
AcDbEntity
8
0
100
AcDbCircle
10
10.000000000000089
20
10.000000000000025
30
0
40
0.99999999999999978
210
-0
220
0
230
1
0
CIRCLE
5
112
100
AcDbEntity
8
0
100
AcDbCircle
10
50.00000000000032
20
-15.000000000005087
30
0
40
1.4999999999999991
210
-0
220
0
230
1
0
CIRCLE
5
113
100
AcDbEntity
8
0
100
AcDbCircle
10
-4.9999999999999112
20
-9.9999999999999751
30
0
40
1.0000000000000009
210
-0
220
0
230
1
0
CIRCLE
5
114
100
AcDbEntity
8
0
100
AcDbCircle
10
-9.9999999999999112
20
10.000000000000025
30
0
40
0.99999999999999978
210
-0
220
0
230
1
0
CIRCLE
5
115
100
AcDbEntity
8
0
100
AcDbCircle
10
10.000000000000089
20
-9.9999999999999751
30
0
40
1.0000000000000009
210
-0
220
0
230
1
0
CIRCLE
5
116
100
AcDbEntity
8
0
100
AcDbCircle
10
8.8817841970012523e-14
20
-9.9999999999999751
30
0
40
1.0000000000000009
210
-0
220
0
230
1
0
LWPOLYLINE
5
117
100
AcDbEntity
8
0
100
AcDbPolyline
90
6
70
1
43
0.0
10
-12.499999999999911
20
13.569848047181264
10
-12.499999999999558
20
12.567788355846286
42
-0.43311376854351136
10
-14.628103277053039
20
10.571895184755185
42
-0.0038679621989545694
10
-30.198708395429552
20
11.692281212897839
42
-0.99999999999999989
10
-29.801291604570011
20
16.67646217814621
42
0.0038520117711922496
10
-14.371769383698222
20
15.565733041123268
42
-0.39554417030317585
0
CIRCLE
5
118
100
AcDbEntity
8
0
100
AcDbCircle
10
15.000000000000089
20
10.000000000000027
30
0
40
0.99999999999999978
210
-0
220
0
230
1
0
CIRCLE
5
119
100
AcDbEntity
8
0
100
AcDbCircle
10
8.8817841970012523e-14
20
10.000000000000025
30
0
40
0.99999999999999978
210
-0
220
0
230
1
0
CIRCLE
5
120
100
AcDbEntity
8
0
100
AcDbCircle
10
-22.499999999999734
20
-5.0924801376326609e-12
30
0
40
1.4999999999999989
210
-0
220
0
230
1
0
CIRCLE
5
121
100
AcDbEntity
8
0
100
AcDbCircle
10
-9.9999999999999112
20
-9.9999999999999751
30
0
40
1.0000000000000009
210
-0
220
0
230
1
0
CIRCLE
5
122
100
AcDbEntity
8
0
100
AcDbCircle
10
15.000000000000089
20
-9.9999999999999751
30
0
40
1.0000000000000009
210
-0
220
0
230
1
0
CIRCLE
5
123
100
AcDbEntity
8
0
100
AcDbCircle
10
50.00000000000032
20
14.999999999994916
30
0
40
1.5000000000000013
210
-0
220
0
230
1
0
CIRCLE
5
124
100
AcDbEntity
8
0
100
AcDbCircle
10
-49.999999999999787
20
-20.000000000005098
30
0
40
1.4999999999999991
210
-0
220
0
230
1
0
LWPOLYLINE
5
125
100
AcDbEntity
8
0
100
AcDbPolyline
90
10
70
1
43
0.0
10
49.999999999998565
20
19.499999999994344
42
-0.024984394500785816
10
-49.551122194513695
20
24.47755610972024
42
0.82770393771700523
10
-52.061552812808586
20
15.999999999994891
42
-0.6096117967977891
10
-52.0615528128086
20
-16.000000000005073
42
0.82770393771721951
10
-49.551122194509944
20
-24.477556109730404
42
-0.024984394500781593
10
50.000000000000298
20
-19.500000000006111
42
0.99999999999999989
10
50.000000000000362
20
-10.500000000004079
42
-0.41421356237307633
10
48.250000000000206
20
-8.7500000000049756
10
48.250000000000206
20
8.7499999999948024
42
-0.41421356237309415
10
50.00000000000032
20
10.499999999994909
42
0.99999999999999989
0
ENDSEC
0
SECTION
2
OBJECTS
0
DICTIONARY
5
C
100
AcDbDictionary
3
ACAD_GROUP
350
D
3
ACAD_MLINESTYLE
350
17
0
DICTIONARY
5
D
100
AcDbDictionary
0
DICTIONARY
5
1A
330
C
100
AcDbDictionary
0
DICTIONARY
5
17
100
AcDbDictionary
0
ENDSEC
0
EOF
